<svg xmlns="http://www.w3.org/2000/svg" viewBox="0 0 256 256" width="256" height="256" role="img" aria-label="Jetonomy">
  <defs>
    <linearGradient id="jt-bg" x1="0" y1="0" x2="1" y2="1">
      <stop offset="0" stop-color="#0984c7"/>
      <stop offset="1" stop-color="#005a87"/>
    </linearGradient>
  </defs>
  <rect width="256" height="256" rx="52" fill="url(#jt-bg)"/>
  <!-- Community speech bubble -->
  <path fill="#ffffff" d="M128 56c-40.9 0-74 27.6-74 61.6 0 19.6 11 37 28.2 48.3-1.3 10.5-5.5 21.6-13.5 29.6-1.6 1.6-.5 4.4 1.8 4.4 16.9 0 31.4-7.4 41.1-14.9 5.3 1 10.8 1.5 16.4 1.5 40.9 0 74-27.5 74-61.4C202 83.6 168.9 56 128 56z"/>
  <!-- Three member dots -->
  <circle cx="94" cy="118" r="11" fill="#005a87"/>
  <circle cx="128" cy="118" r="11" fill="#005a87"/>
  <circle cx="162" cy="118" r="11" fill="#005a87"/>
</svg>
