<svg xmlns="http://www.w3.org/2000/svg" viewBox="0 0 760 200" width="760" height="200" role="img" aria-label="Jetonomy">
  <defs>
    <linearGradient id="jtGrad" x1="0" y1="0" x2="1" y2="1">
      <stop offset="0" stop-color="#3B82F6"/>
      <stop offset="1" stop-color="#7C3AED"/>
    </linearGradient>
  </defs>
  <!-- mark -->
  <g transform="translate(8,20) scale(0.3125)">
    <rect x="36" y="36" width="440" height="440" rx="120" fill="url(#jtGrad)"/>
    <g fill="#FFFFFF">
      <g opacity="0.82">
        <circle cx="324" cy="206" r="44"/>
        <path d="M268 330a56 60 0 0 1 112 0v2a6 6 0 0 1-6 6H274a6 6 0 0 1-6-6z"/>
      </g>
      <circle cx="206" cy="220" r="60"/>
      <path d="M124 366a82 86 0 0 1 164 0v4a10 10 0 0 1-10 10H134a10 10 0 0 1-10-10z"/>
    </g>
  </g>
  <!-- wordmark -->
  <text x="196" y="118" font-family="Inter, 'Segoe UI', system-ui, -apple-system, sans-serif" font-weight="800" font-size="104" letter-spacing="-5">
    <tspan fill="#1F2733">Jet</tspan><tspan fill="url(#jtGrad)">onomy</tspan>
  </text>
  <text x="200" y="162" font-family="Inter, 'Segoe UI', system-ui, sans-serif" font-weight="500" font-size="27" letter-spacing="0.5" fill="#6B7280">Community platform for WordPress</text>
</svg>
