<svg xmlns="http://www.w3.org/2000/svg" viewBox="0 0 760 200" width="760" height="200" role="img" aria-label="Jetonomy">
  <!-- All-white lockup for use over photos or brand-color fills. -->
  <g transform="translate(8,20) scale(0.3125)" fill="#FFFFFF">
    <g opacity="0.9"><circle cx="324" cy="206" r="44"/><path d="M268 330a56 60 0 0 1 112 0v2a6 6 0 0 1-6 6H274a6 6 0 0 1-6-6z"/></g>
    <circle cx="206" cy="220" r="60"/><path d="M124 366a82 86 0 0 1 164 0v4a10 10 0 0 1-10 10H134a10 10 0 0 1-10-10z"/>
  </g>
  <text x="196" y="118" font-family="Inter, 'Segoe UI', system-ui, -apple-system, sans-serif" font-weight="800" font-size="104" letter-spacing="-5" fill="#FFFFFF">Jetonomy</text>
  <text x="200" y="162" font-family="Inter, 'Segoe UI', system-ui, sans-serif" font-weight="500" font-size="27" letter-spacing="0.5" fill="rgba(255,255,255,0.85)">Community platform for WordPress</text>
</svg>
